<svg xmlns="http://www.w3.org/2000/svg" width="1024" height="1024" viewBox="0 0 1024 1024">
  <defs>
  </defs>
  <rect x="100" y="100" width="824" height="824" rx="185" fill="#002008" stroke="#1E3A28" stroke-width="8"/>
  <g fill="none" stroke-linecap="round" stroke-linejoin="round">
    <!-- mesh / construction lines (forest) -->
    <g stroke="#2F6B45" stroke-width="10">
      <path d="M300 400 L420 470 L560 395 L680 440 L800 420"/>
      <path d="M420 470 L470 520 M560 395 L600 480 M680 440 L700 490"/>
      <path d="M330 600 L450 640 L580 610 L700 640"/>
      <path d="M450 640 L430 560 M580 610 L560 575"/>
      <path d="M250 470 L300 400 L330 330"/>
      <path d="M250 560 L330 600 L300 690"/>
    </g>
    <!-- scutes on the neck -->
    <path d="M212 360 L232 322 L262 345 L286 305 L316 330" stroke="#5E9E5A" stroke-width="16"/>
    <!-- outline (moss) -->
    <g stroke="#5E9E5A" stroke-width="22">
      <!-- upper head and snout -->
      <path d="M200 520 L200 380 Q240 330 330 330 Q380 270 440 290 Q480 300 500 340 L740 370 Q770 345 800 370 L830 400 Q845 430 820 450 L470 520"/>
      <!-- lower jaw -->
      <path d="M470 520 L800 620 Q830 635 810 660 L720 690 L420 700 Q300 700 200 640 L200 520"/>
      <!-- jaw hinge -->
      <circle cx="455" cy="535" r="26" stroke-width="14"/>
    </g>
    <!-- teeth -->
    <g stroke="#CFDCC4" stroke-width="12">
      <path d="M760 455 L752 490 L730 460"/>
      <path d="M640 478 L632 510 L612 482"/>
      <path d="M720 610 L716 578 L695 604"/>
      <path d="M600 575 L598 545 L578 570"/>
    </g>
    <!-- eye and nostril (lichen) -->
    <path d="M395 330 Q430 305 465 325" stroke="#5E9E5A" stroke-width="14"/>
    <circle cx="430" cy="345" r="20" stroke="#CFDCC4" stroke-width="14"/>
    <circle cx="436" cy="345" r="5" fill="#CFDCC4" stroke="none"/>
    <path d="M770 380 Q790 372 805 388" stroke="#CFDCC4" stroke-width="12"/>
  </g>
</svg>
